<svg width="83" height="36" viewBox="0 0 83 36" fill="none" xmlns="http://www.w3.org/2000/svg">
<g clip-path="url(#clip0_14_2143)">
<path fill-rule="evenodd" clip-rule="evenodd" d="M20.6679 9.04712C20.2058 9.19956 19.7119 9.28205 19.1987 9.28205C16.6108 9.28205 14.5128 7.1841 14.5128 4.59615C14.5128 4.22578 14.5558 3.86545 14.637 3.51987C13.5913 3.15811 12.4684 2.96154 11.2981 2.96154C5.58312 2.96154 1 7.64894 1 13.3693C1 19.0897 5.58312 23.7771 11.2981 23.7771C13.4675 23.7771 15.4738 23.1017 17.1282 21.9507V24.9744C17.1282 28.0757 14.5708 30.641 11.3526 30.641C8.13433 30.641 5.57692 28.0757 5.57692 24.9744H1.21795C1.21795 30.5396 5.78381 35 11.3526 35C16.7751 35 21.2468 30.7707 21.4778 25.4103H21.4872V14.8869C21.559 14.3912 21.5962 13.8844 21.5962 13.3693C21.5962 11.8301 21.2643 10.3656 20.6679 9.04712ZM5.35897 13.3693C5.35897 10.001 8.04549 7.32051 11.2981 7.32051C14.5507 7.32051 17.2372 10.001 17.2372 13.3693C17.2372 16.7377 14.5507 19.4181 11.2981 19.4181C8.04549 19.4181 5.35897 16.7377 5.35897 13.3693Z" fill="#2CBEEF"/>
<path fill-rule="evenodd" clip-rule="evenodd" d="M20.6679 9.04712C20.2058 9.19956 19.7119 9.28205 19.1987 9.28205C16.6108 9.28205 14.5128 7.1841 14.5128 4.59615C14.5128 4.22578 14.5558 3.86545 14.637 3.51987C13.5913 3.15811 12.4684 2.96154 11.2981 2.96154C5.58312 2.96154 1 7.64894 1 13.3693C1 19.0897 5.58312 23.7771 11.2981 23.7771C13.4675 23.7771 15.4738 23.1017 17.1282 21.9507V24.9744C17.1282 28.0757 14.5708 30.641 11.3526 30.641C8.13433 30.641 5.57692 28.0757 5.57692 24.9744H1.21795C1.21795 30.5396 5.78381 35 11.3526 35C16.7751 35 21.2468 30.7707 21.4778 25.4103H21.4872V14.8869C21.559 14.3912 21.5962 13.8844 21.5962 13.3693C21.5962 11.8301 21.2643 10.3656 20.6679 9.04712ZM5.35897 13.3693C5.35897 10.001 8.04549 7.32051 11.2981 7.32051C14.5507 7.32051 17.2372 10.001 17.2372 13.3693C17.2372 16.7377 14.5507 19.4181 11.2981 19.4181C8.04549 19.4181 5.35897 16.7377 5.35897 13.3693Z" fill="white"/>
<path d="M22.7949 4.59615C22.7949 6.58225 21.1848 8.19231 19.1987 8.19231C17.2126 8.19231 15.6026 6.58225 15.6026 4.59615C15.6026 2.61005 17.2126 1 19.1987 1C21.1848 1 22.7949 2.61005 22.7949 4.59615Z" fill="#6400E6"/>
<path d="M44.0607 16.0804C44.0607 16.7797 44.014 17.4091 43.9208 17.9685H29.76C29.8765 19.3671 30.366 20.4627 31.2285 21.2552C32.091 22.0478 33.1516 22.4441 34.4103 22.4441C36.2285 22.4441 37.5222 21.6632 38.2914 20.1014H43.5711C43.0117 21.9662 41.9394 23.5047 40.3544 24.7168C38.7693 25.9056 36.8229 26.5 34.5152 26.5C32.6504 26.5 30.9721 26.0921 29.4802 25.2762C28.0117 24.4371 26.8579 23.2599 26.0187 21.7448C25.2028 20.2296 24.7949 18.4814 24.7949 16.5C24.7949 14.4953 25.2028 12.7354 26.0187 11.2203C26.8345 9.70513 27.9767 8.53963 29.4453 7.72378C30.9138 6.90793 32.6038 6.5 34.5152 6.5C36.3567 6.5 38 6.89627 39.4453 7.68881C40.9138 8.48135 42.0443 9.61189 42.8369 11.0804C43.6527 12.5256 44.0607 14.1923 44.0607 16.0804ZM38.9907 14.6818C38.9674 13.4231 38.5129 12.4207 37.6271 11.6748C36.7413 10.9056 35.6574 10.521 34.3753 10.521C33.1632 10.521 32.1376 10.8939 31.2984 11.6399C30.4826 12.3625 29.9814 13.3765 29.7949 14.6818H38.9907Z" fill="url(#paint0_linear_14_2143)"/>
<path d="M44.0607 16.0804C44.0607 16.7797 44.014 17.4091 43.9208 17.9685H29.76C29.8765 19.3671 30.366 20.4627 31.2285 21.2552C32.091 22.0478 33.1516 22.4441 34.4103 22.4441C36.2285 22.4441 37.5222 21.6632 38.2914 20.1014H43.5711C43.0117 21.9662 41.9394 23.5047 40.3544 24.7168C38.7693 25.9056 36.8229 26.5 34.5152 26.5C32.6504 26.5 30.9721 26.0921 29.4802 25.2762C28.0117 24.4371 26.8579 23.2599 26.0187 21.7448C25.2028 20.2296 24.7949 18.4814 24.7949 16.5C24.7949 14.4953 25.2028 12.7354 26.0187 11.2203C26.8345 9.70513 27.9767 8.53963 29.4453 7.72378C30.9138 6.90793 32.6038 6.5 34.5152 6.5C36.3567 6.5 38 6.89627 39.4453 7.68881C40.9138 8.48135 42.0443 9.61189 42.8369 11.0804C43.6527 12.5256 44.0607 14.1923 44.0607 16.0804ZM38.9907 14.6818C38.9674 13.4231 38.5129 12.4207 37.6271 11.6748C36.7413 10.9056 35.6574 10.521 34.3753 10.521C33.1632 10.521 32.1376 10.8939 31.2984 11.6399C30.4826 12.3625 29.9814 13.3765 29.7949 14.6818H38.9907Z" fill="url(#paint1_linear_14_2143)"/>
<path d="M44.0607 16.0804C44.0607 16.7797 44.014 17.4091 43.9208 17.9685H29.76C29.8765 19.3671 30.366 20.4627 31.2285 21.2552C32.091 22.0478 33.1516 22.4441 34.4103 22.4441C36.2285 22.4441 37.5222 21.6632 38.2914 20.1014H43.5711C43.0117 21.9662 41.9394 23.5047 40.3544 24.7168C38.7693 25.9056 36.8229 26.5 34.5152 26.5C32.6504 26.5 30.9721 26.0921 29.4802 25.2762C28.0117 24.4371 26.8579 23.2599 26.0187 21.7448C25.2028 20.2296 24.7949 18.4814 24.7949 16.5C24.7949 14.4953 25.2028 12.7354 26.0187 11.2203C26.8345 9.70513 27.9767 8.53963 29.4453 7.72378C30.9138 6.90793 32.6038 6.5 34.5152 6.5C36.3567 6.5 38 6.89627 39.4453 7.68881C40.9138 8.48135 42.0443 9.61189 42.8369 11.0804C43.6527 12.5256 44.0607 14.1923 44.0607 16.0804ZM38.9907 14.6818C38.9674 13.4231 38.5129 12.4207 37.6271 11.6748C36.7413 10.9056 35.6574 10.521 34.3753 10.521C33.1632 10.521 32.1376 10.8939 31.2984 11.6399C30.4826 12.3625 29.9814 13.3765 29.7949 14.6818H38.9907Z" fill="white"/>
<path d="M56.9693 6.53496C59.277 6.53496 61.1418 7.26923 62.5637 8.73776C63.9856 10.183 64.6966 12.211 64.6966 14.8217V26.1853H59.8015V15.486C59.8015 13.9476 59.4169 12.7704 58.6476 11.9545C57.8784 11.1154 56.8294 10.6958 55.5008 10.6958C54.1488 10.6958 53.0765 11.1154 52.284 11.9545C51.5148 12.7704 51.1301 13.9476 51.1301 15.486V26.1853H46.235V6.81469H51.1301V9.22727C51.7828 8.38811 52.6103 7.73543 53.6127 7.26923C54.6383 6.77972 55.7572 6.53496 56.9693 6.53496Z" fill="url(#paint2_linear_14_2143)"/>
<path d="M56.9693 6.53496C59.277 6.53496 61.1418 7.26923 62.5637 8.73776C63.9856 10.183 64.6966 12.211 64.6966 14.8217V26.1853H59.8015V15.486C59.8015 13.9476 59.4169 12.7704 58.6476 11.9545C57.8784 11.1154 56.8294 10.6958 55.5008 10.6958C54.1488 10.6958 53.0765 11.1154 52.284 11.9545C51.5148 12.7704 51.1301 13.9476 51.1301 15.486V26.1853H46.235V6.81469H51.1301V9.22727C51.7828 8.38811 52.6103 7.73543 53.6127 7.26923C54.6383 6.77972 55.7572 6.53496 56.9693 6.53496Z" fill="url(#paint3_linear_14_2143)"/>
<path d="M56.9693 6.53496C59.277 6.53496 61.1418 7.26923 62.5637 8.73776C63.9856 10.183 64.6966 12.211 64.6966 14.8217V26.1853H59.8015V15.486C59.8015 13.9476 59.4169 12.7704 58.6476 11.9545C57.8784 11.1154 56.8294 10.6958 55.5008 10.6958C54.1488 10.6958 53.0765 11.1154 52.284 11.9545C51.5148 12.7704 51.1301 13.9476 51.1301 15.486V26.1853H46.235V6.81469H51.1301V9.22727C51.7828 8.38811 52.6103 7.73543 53.6127 7.26923C54.6383 6.77972 55.7572 6.53496 56.9693 6.53496Z" fill="white"/>
<path d="M72.4285 22.1643H81.0649V26.1853H66.869V22.2343L75.3306 10.8357H66.904V6.81469H80.96V10.7657L72.4285 22.1643Z" fill="url(#paint4_linear_14_2143)"/>
<path d="M72.4285 22.1643H81.0649V26.1853H66.869V22.2343L75.3306 10.8357H66.904V6.81469H80.96V10.7657L72.4285 22.1643Z" fill="url(#paint5_linear_14_2143)"/>
<path d="M72.4285 22.1643H81.0649V26.1853H66.869V22.2343L75.3306 10.8357H66.904V6.81469H80.96V10.7657L72.4285 22.1643Z" fill="white"/>
</g>
<defs>
<linearGradient id="paint0_linear_14_2143" x1="25.7259" y1="17.6934" x2="81.0649" y2="17.6934" gradientUnits="userSpaceOnUse">
<stop stop-color="#2CBEEF"/>
<stop offset="1" stop-color="#BED748"/>
</linearGradient>
<linearGradient id="paint1_linear_14_2143" x1="77.2032" y1="23.5909" x2="39.0172" y2="-0.616442" gradientUnits="userSpaceOnUse">
<stop stop-color="#181818"/>
<stop offset="1" stop-color="#383B4A"/>
</linearGradient>
<linearGradient id="paint2_linear_14_2143" x1="25.7259" y1="17.6934" x2="81.0649" y2="17.6934" gradientUnits="userSpaceOnUse">
<stop stop-color="#2CBEEF"/>
<stop offset="1" stop-color="#BED748"/>
</linearGradient>
<linearGradient id="paint3_linear_14_2143" x1="77.2032" y1="23.5909" x2="39.0172" y2="-0.616442" gradientUnits="userSpaceOnUse">
<stop stop-color="#181818"/>
<stop offset="1" stop-color="#383B4A"/>
</linearGradient>
<linearGradient id="paint4_linear_14_2143" x1="25.7259" y1="17.6934" x2="81.0649" y2="17.6934" gradientUnits="userSpaceOnUse">
<stop stop-color="#2CBEEF"/>
<stop offset="1" stop-color="#BED748"/>
</linearGradient>
<linearGradient id="paint5_linear_14_2143" x1="77.2032" y1="23.5909" x2="39.0172" y2="-0.616442" gradientUnits="userSpaceOnUse">
<stop stop-color="#181818"/>
<stop offset="1" stop-color="#383B4A"/>
</linearGradient>
<clipPath id="clip0_14_2143">
<rect width="82.0648" height="36" fill="white"/>
</clipPath>
</defs>
</svg>
